<?xml version="1.0" standalone="no"?>
<!DOCTYPE svg PUBLIC "-//W3C//DTD SVG 20010904//EN"
 "http://www.w3.org/TR/2001/REC-SVG-20010904/DTD/svg10.dtd">
<svg version="1.0" xmlns="http://www.w3.org/2000/svg"
 width="491.000000pt" height="88.000000pt" viewBox="0 0 491.000000 88.000000"
 preserveAspectRatio="xMidYMid meet">

<g transform="translate(0.000000,88.000000) scale(0.100000,-0.100000)"
fill="#000000" stroke="none">
<path d="M1220 620 c0 -55 -3 -100 -6 -100 -3 0 -19 11 -35 25 -78 65 -177 46
-228 -46 -33 -58 -27 -151 12 -203 62 -80 161 -90 235 -23 22 20 22 20 22 1 0
-25 18 -44 42 -44 19 0 25 34 8 45 -6 4 -10 90 -10 226 0 212 -1 219 -20 219
-19 0 -20 -7 -20 -100z m-52 -98 c35 -23 52 -65 52 -126 0 -44 -5 -60 -26 -85
-91 -109 -258 -3 -216 138 12 40 55 86 87 94 28 7 75 -3 103 -21z"/>
<path d="M2252 478 c3 -235 4 -243 23 -243 19 0 20 7 21 95 1 116 8 151 38
179 47 44 133 45 152 3 4 -9 10 -75 13 -147 5 -113 8 -130 24 -133 15 -3 17 8
17 133 0 182 -19 218 -113 217 -41 -1 -117 -42 -117 -64 0 -6 -3 -8 -7 -5 -4
4 -6 52 -5 107 l2 100 -25 0 -25 0 2 -242z"/>
<path d="M4170 614 l0 -106 -40 36 c-49 44 -115 52 -170 19 -74 -43 -103 -169
-58 -248 56 -96 166 -115 246 -42 18 17 22 18 22 4 0 -19 27 -47 46 -47 16 0
19 36 4 45 -6 4 -10 90 -10 226 0 212 -1 219 -20 219 -19 0 -20 -7 -20 -106z
m-48 -96 c40 -28 48 -48 48 -117 0 -49 -4 -65 -26 -90 -62 -75 -171 -53 -209
41 -28 70 -5 140 58 179 38 23 86 19 129 -13z"/>
<path d="M1800 690 c0 -18 7 -20 80 -20 69 0 80 -2 81 -17 1 -10 2 -108 3
-218 1 -199 1 -200 24 -203 l22 -3 0 220 0 221 85 0 c78 0 85 2 85 20 0 19 -7
20 -190 20 -183 0 -190 -1 -190 -20z"/>
<path d="M3537 669 c-47 -76 -227 -399 -227 -408 0 -15 476 -15 485 -1 6 10
-202 387 -231 419 -10 11 -14 9 -27 -10z m127 -211 c53 -92 96 -170 96 -173 0
-3 -92 -5 -205 -5 -113 0 -205 2 -205 5 0 16 204 355 210 348 4 -4 51 -83 104
-175z"/>
<path d="M3527 513 c-43 -69 -97 -170 -97 -181 0 -9 37 -12 125 -12 90 0 125
3 125 12 0 15 -107 205 -120 213 -5 3 -20 -11 -33 -32z m72 -81 c22 -41 41
-76 41 -78 0 -2 -38 -4 -85 -4 -47 0 -85 2 -85 5 0 6 84 154 86 152 1 -1 20
-35 43 -75z"/>
<path d="M624 578 c-71 -15 -134 -97 -134 -174 0 -50 32 -115 72 -144 49 -36
141 -40 188 -8 56 38 80 82 80 147 0 67 -22 114 -70 152 -41 31 -80 39 -136
27z m114 -61 c96 -89 47 -250 -77 -250 -72 0 -123 57 -123 139 0 116 122 183
200 111z"/>
<path d="M1493 578 c-73 -16 -133 -94 -133 -173 0 -49 21 -94 64 -134 31 -30
44 -35 94 -39 46 -3 68 0 100 17 50 25 72 58 46 68 -10 4 -22 0 -28 -8 -35
-46 -104 -62 -156 -36 -29 15 -70 72 -70 98 0 18 11 19 145 19 l145 0 0 35 c0
78 -60 141 -150 160 -8 1 -34 -2 -57 -7z m128 -64 c16 -16 31 -44 35 -61 l7
-33 -127 0 c-121 0 -126 1 -126 21 0 29 28 73 59 93 41 26 115 16 152 -20z"/>
<path d="M3006 578 c-54 -12 -91 -41 -116 -94 -41 -84 -5 -201 75 -238 69 -33
175 -12 210 40 14 22 14 25 0 30 -10 4 -27 -4 -44 -21 -57 -54 -150 -40 -191
28 -40 65 -37 66 128 69 l147 3 -3 35 c-10 101 -105 170 -206 148z m126 -68
c23 -25 38 -51 38 -65 l0 -25 -125 0 -125 0 0 26 c0 17 14 40 39 65 34 34 44
39 86 39 43 0 52 -4 87 -40z"/>
<path d="M4425 580 c-66 -14 -95 -44 -95 -99 0 -47 18 -59 145 -98 49 -15 61
-23 70 -47 8 -25 6 -31 -18 -52 -35 -30 -97 -32 -152 -4 -47 24 -55 25 -55 5
0 -24 78 -55 138 -55 86 0 132 34 132 97 0 48 -23 66 -122 98 -85 27 -93 32
-96 57 -7 60 72 87 155 53 46 -19 67 -4 29 20 -34 22 -92 33 -131 25z"/>
<path d="M149 548 c-92 -71 -90 -218 3 -289 28 -20 44 -24 105 -24 68 0 74 2
105 32 26 26 30 35 20 45 -8 8 -17 9 -26 3 -54 -40 -71 -48 -105 -48 -74 0
-124 59 -125 146 0 57 24 94 78 121 32 16 44 17 75 7 21 -6 45 -19 55 -30 10
-11 25 -17 37 -14 25 7 24 15 -3 40 -37 34 -64 43 -122 43 -46 0 -61 -5 -97
-32z"/>
<path d="M2620 404 c0 -162 1 -175 18 -172 15 3 18 19 22 120 5 106 7 119 29
142 14 15 42 31 63 38 26 8 38 17 38 30 0 33 -48 22 -91 -21 l-39 -39 0 39 c0
32 -3 39 -20 39 -19 0 -20 -7 -20 -176z"/>
</g>
</svg>
